HIERARCHY
ROOT HipCenter
{
    OFFSET 0.0 0.0 -0.0
    CHANNELS 6 Xposition Yposition Zposition Zrotation Xrotation Yrotation
    JOINT Spine
    {
        OFFSET 0.0 9.787033081054688 0.0
        CHANNELS 3 Zrotation Xrotation Yrotation
        JOINT ShoulderCenter
        {
            OFFSET 0.0 28.435182571411133 0.0
            CHANNELS 3 Zrotation Xrotation Yrotation
            JOINT LeftShoulder
            {
                OFFSET 18.452661514282227 0.0 0.0
                CHANNELS 3 Zrotation Xrotation Yrotation
                JOINT LeftElbow
                {
                    OFFSET 29.938873291015625 0.0 0.0
                    CHANNELS 3 Zrotation Xrotation Yrotation
                    JOINT LeftWrist
                    {
                        OFFSET 28.813201904296875 0.0 0.0
                        CHANNELS 3 Zrotation Xrotation Yrotation
                        JOINT LeftHand
                        {
                            OFFSET 3.7268147468566895 0.0 0.0
                            CHANNELS 3 Zrotation Xrotation Yrotation
                            End Site
                            {
                                OFFSET 1.4907259941101074 0.0 0.0
                            }
                        }
                    }
                }
            }
            JOINT RightShoulder
            {
                OFFSET -18.452661514282227 0.0 0.0
                CHANNELS 3 Zrotation Xrotation Yrotation
                JOINT RightElbow
                {
                    OFFSET -29.938873291015625 0.0 0.0
                    CHANNELS 3 Zrotation Xrotation Yrotation
                    JOINT RightWrist
                    {
                        OFFSET -28.813201904296875 0.0 0.0
                        CHANNELS 3 Zrotation Xrotation Yrotation
                        JOINT RightHand
                        {
                            OFFSET -3.7268147468566895 0.0 0.0
                            CHANNELS 3 Zrotation Xrotation Yrotation
                            End Site
                            {
                                OFFSET -1.4907259941101074 0.0 0.0
                            }
                        }
                    }
                }
            }
            End Site
            {
                OFFSET 0.0 11.374073028564453 0.0
            }
        }
    }
    JOINT LeftHip
    {
        OFFSET 14.571001052856445 0.0 0.0
        CHANNELS 3 Zrotation Xrotation Yrotation
        JOINT LeftKnee
        {
            OFFSET 0.0 -39.30992126464844 0.0
            CHANNELS 3 Zrotation Xrotation Yrotation
            JOINT LeftAnkle
            {
                OFFSET 0.0 -42.284332275390625 0.0
                CHANNELS 3 Zrotation Xrotation Yrotation
                JOINT LeftFoot
                {
                    OFFSET 0.0 -10.247773170471191 0.0
                    CHANNELS 3 Zrotation Xrotation Yrotation
                    End Site
                    {
                        OFFSET 0.0 0.0 4.099109172821045
                    }
                }
            }
        }
    }
    JOINT RightHip
    {
        OFFSET -14.571001052856445 0.0 0.0
        CHANNELS 3 Zrotation Xrotation Yrotation
        JOINT RightKnee
        {
            OFFSET 0.0 -39.30992126464844 0.0
            CHANNELS 3 Zrotation Xrotation Yrotation
            JOINT RightAnkle
            {
                OFFSET 0.0 -42.284332275390625 0.0
                CHANNELS 3 Zrotation Xrotation Yrotation
                JOINT RightFoot
                {
                    OFFSET 0.0 -10.247773170471191 0.0
                    CHANNELS 3 Zrotation Xrotation Yrotation
                    End Site
                    {
                        OFFSET 0.0 0.0 4.099109172821045
                    }
                }
            }
        }
    }
}
MOTION
Frames: 6
Frame Time: 0.03333333333333333
4.0 -1.4000000953674316 52.20000076293945 -5.3009278844123875 -2.938181686078298 3.231964834027558 4.981003173059569 -1.9870389370534682 0.2680263127361403 2.5830399911740817e-08 7.355031830364797e-08 1.2864388838919578 86.29445760228154 -15.567674659958376 -177.325156130566 1.3347447062756892e-06 2.3650070950113395e-06 93.29073528853814 179.99999860555653 -7.596067339564923 -156.87279260562067 6.3611093629270335e-15 7.062250076880254e-31 1.2722218725854067e-14 -100.03795626220925 -42.562049991755075 171.0221651730862 -1.0525615163851008e-06 5.693145441252273e-07 -101.19932882566953 4.859293389464891e-06 -66.17252164853373 -53.75555087234654 3.1805546814635176e-15 -3.1805546814635176e-15 2.3854160110976384e-15 8.01565967845699 13.250007635693411 -31.947792334807325 -0.4404675975243833 -3.373017161349556 3.7284570316545453 76.4459647260468 -57.75194637368801 128.84477226918293 0.0 0.0 1.5902773407317584e-15 4.047727546254005 7.037512980253989 17.803321787624153 -0.2782499427469244 6.775986330455276 4.946609424239407 -78.11024742223339 -60.77132697605277 -117.11620043146802 -1.5902773407317584e-15 6.361109362927033e-15 4.770832022195274e-15
4.0 -1.4000000953674316 52.20000076293945 -5.300927636046657 -2.9381817294700756 3.249131203217375 4.980409732655466 -1.9885290452397733 0.26959058263447333 1.6481195844183323e-08 -3.184370319362624e-08 1.1111544936298519 86.25047155041368 -15.230671437575712 -177.52058754913907 1.8627474067845073e-06 -1.3606749022675772e-06 93.50059317830822 -179.99999879786967 -7.188877881590725 -156.88037034414074 -1.7655625192200634e-31 6.361109362927032e-15 3.180554681463516e-15 -99.33187870968719 -42.045378453816284 171.8623550210962 3.0565416372040185e-06 -2.6081662556531814e-06 -101.81317799483183 -8.98050432657391e-06 -62.99749747452001 -56.542698354948385 3.1805546814635168e-15 -6.3611093629270335e-15 5.565970692561154e-15 8.019662025882706 13.247613715734719 -31.96525651042954 -0.5600090520755873 -3.436340687990997 3.7823172660501814 76.46113176710948 -57.79823829225528 128.71704300174935 0.0 0.0 1.5902773407317584e-15 3.918216833733784 7.182964713121239 18.111241593603854 -0.2130871429995055 6.4732915919436005 4.765881400929173 -77.88833064682876 -60.623947537874805 -117.17483625483455 8.827812596100317e-32 -6.361109362927033e-15 1.5902773407317582e-15
4.0 -1.4000000953674316 52.20000076293945 -5.300927687896377 -2.351295993519039 3.220898919533673 4.950429199915814 -2.5698293868145123 0.34849449301879504 2.0629465836316844e-08 -2.8497295420786928e-08 1.1111557771329934 86.41281847488943 -15.179558999591206 -177.7067200441765 -3.875834634577887e-06 -6.35565435465072e-08 93.69409809342794 -179.9999990756172 -6.957669909055637 -156.9195648889637 0.0 0.0 0.0 -99.19886758802551 -41.384620267484685 172.21096196677573 -1.002558581248821e-06 5.002682340854382e-06 -102.4597586424713 5.063032211527307e-06 -62.24162888479746 -57.32052407030455 0.0 0.0 -6.361109362927033e-15 7.970967440756083 12.821089560597501 -32.00351699055808 -0.4797194910012142 -3.5697777105309236 3.929792193562737 76.46114807466223 -57.79823593462347 128.71705827272459 0.0 0.0 1.5902773407317584e-15 3.8768795395621827 6.600288482334162 18.179731782402868 -0.2130871429995055 6.4732915919436005 4.765881400929173 -77.88833064682876 -60.623947537874805 -117.17483625483455 8.827812596100317e-32 -6.361109362927033e-15 1.5902773407317582e-15
4.0 -1.4000000953674316 52.20000076293945 -5.300927687896377 -2.351295993519039 3.220898919533673 4.950429199915814 -2.5698293868145123 0.34849449301879504 1.2239245573307138e-08 -1.7072157404907656e-07 1.0985182265288422 86.41516399361245 -14.972258339836923 -177.73230636660384 -2.3908870547816446e-06 -8.139500042750622e-07 93.55314139409637 179.99999866497268 -6.5291910601535434 -157.1090307578486 0.0 0.0 0.0 -98.91738907577896 -39.790515880179875 172.65301517942808 1.2560137451347847e-06 -5.535004696762548e-06 -103.06205873122661 -2.5090990409132317e-06 -59.28165487647753 -58.14662847790699 2.427648463927587e-31 3.1805546814635168e-15 -8.74652537402467e-15 8.127202812508674 12.81057157624437 -32.11909382755534 -0.8480250784195619 -3.770039303427668 4.115455090222157 76.49217999127887 -57.88976280142386 128.46242317127022 3.1805546814635168e-15 4.4139062980501586e-32 1.5902773407317584e-15 3.8768795395621827 6.600288482334162 18.179731782402868 -0.2130871429995055 6.4732915919436005 4.765881400929173 -77.88833064682876 -60.623947537874805 -117.17483625483455 8.827812596100317e-32 -6.361109362927033e-15 1.5902773407317582e-15
4.0 -1.4000000953674316 52.20000076293945 -5.3009279247428065 -2.938181833463725 3.51174587229796 4.984431977330466 -1.8112486590071954 0.24394671395038228 4.593426661813992e-09 7.263548339167446e-08 0.8714817724938074 86.45134903386062 -14.993334311837613 -177.5264765077632 -2.3908870547816446e-06 -8.139500042750622e-07 93.55314139409637 179.99999866497268 -6.5291910601535434 -157.1090307578486 0.0 0.0 0.0 -99.05653487239708 -39.48903512617423 172.6847817406306 8.19530676478e-07 4.405982197779952e-06 -103.07348444438766 4.037674743885761e-06 -59.61318763429353 -59.438368406087754 0.0 0.0 2.3854160110976384e-15 8.080791405252144 13.210829834557885 -31.45558476491102 -0.6659117434948678 -3.609223022328235 3.9478004175543404 74.88595302640881 -58.565600969745425 126.63141380044416 2.2069531490250793e-31 -7.951386703658792e-15 3.1805546814635168e-15 3.9511935216296723 7.164943845609913 17.84717811498564 -0.2130871429995055 6.4732915919436005 4.765881400929173 -78.0176373809228 -60.062416310071754 -117.44632017071628 0.0 0.0 0.0
4.199999809265137 -1.5 52.10000228881836 -4.714756224854661 -2.3534023365466132 4.161082143190941 4.741343518921013 -2.4347895281240586 0.40714785126368325 -2.423477308854516e-08 -3.128757239696778e-08 0.14751497407794867 85.87025174959408 -14.85517333659123 -177.37872864400475 -3.482748259654476e-06 -2.940511663606796e-06 93.37665179346547 -179.99999801330105 -6.957293983391665 -157.3746525512068 0.0 0.0 -3.1805546814635168e-15 -99.63735178452546 -39.685556708370264 173.24836939337 1.565212822487753e-06 -4.339961254374594e-06 -102.36331090630068 4.141377853840455e-06 -59.82534140765059 -58.81795372518074 0.0 0.0 -3.1805546814635176e-15 7.893511390284765 12.560762933224796 -33.57255862748838 -0.7112332383895337 -4.006986414703451 4.648371649661292 74.03367991960012 -57.082700595957405 127.93154498091874 4.413906298050159e-31 -6.3611093629270335e-15 7.951386703658792e-15 3.4089548548497124 6.720300039008167 17.764716809896235 -0.029233468565375863 6.420027610773183 4.41982856072382 -78.24291465867769 -60.45389593927797 -115.6244722248981 0.0 0.0 -1.5902773407317582e-15
